<?xml version="1.0" standalone="no"?>
<!DOCTYPE svg PUBLIC "-//W3C//DTD SVG 20010904//EN"
 "http://www.w3.org/TR/2001/REC-SVG-20010904/DTD/svg10.dtd">
<svg version="1.0" xmlns="http://www.w3.org/2000/svg"
 width="1000.000000pt" height="1000.000000pt" viewBox="0 0 1000.000000 1000.000000"
 preserveAspectRatio="xMidYMid meet">
<metadata>
Created by potrace 1.14, written by Peter Selinger 2001-2017
</metadata>
<g transform="translate(0.000000,1000.000000) scale(0.100000,-0.100000)"
fill="#000000" stroke="none">
<path d="M3447 9993 c-3 -5 -50 -125 -106 -268 -315 -816 -492 -1272 -500
-1290 -5 -11 -27 -67 -49 -125 -90 -234 -144 -374 -186 -482 -64 -164 -299
-771 -358 -923 -27 -71 -54 -139 -58 -150 -5 -11 -30 -74 -56 -140 -43 -114
-142 -365 -260 -667 -30 -76 -79 -202 -109 -280 -31 -79 -60 -152 -65 -163 -5
-11 -56 -139 -114 -285 -368 -937 -412 -1036 -522 -1180 -84 -111 -232 -233
-354 -295 -60 -30 -193 -75 -265 -90 -16 -4 -82 -15 -145 -27 -63 -11 -116
-21 -118 -22 -3 -3 -4 -94 -3 -224 l1 -102 1247 2 1248 3 0 162 1 163 -26 1
c-14 1 -34 3 -45 4 -11 1 -49 5 -85 8 -114 12 -152 18 -288 48 -234 53 -362
108 -444 192 -80 81 -88 155 -42 387 38 188 206 713 354 1103 l83 217 1165 -2
1166 -3 43 -114 c24 -63 43 -118 43 -123 0 -5 -31 -73 -69 -151 -134 -276
-222 -529 -291 -837 -20 -90 -23 -105 -40 -214 -67 -422 -72 -952 -15 -1341
13 -90 37 -230 40 -235 2 -3 6 -21 9 -41 25 -158 127 -474 225 -696 234 -529
547 -927 998 -1266 56 -42 105 -77 108 -77 3 0 32 -17 63 -39 195 -132 534
-277 819 -351 265 -69 321 -75 728 -75 362 0 443 5 615 40 14 3 38 8 53 10 23
5 108 25 208 49 39 10 263 87 296 102 361 163 559 296 782 523 217 223 417
520 577 857 55 118 106 236 101 239 -1 0 -22 10 -47 22 -236 112 -281 133
-291 135 -6 2 -26 -33 -43 -77 -59 -148 -189 -391 -259 -485 -10 -14 -41 -56
-69 -95 -88 -120 -230 -274 -348 -375 -113 -98 -326 -224 -470 -279 -30 -12
-64 -26 -75 -31 -44 -21 -181 -60 -263 -76 -172 -33 -243 -39 -442 -39 -183 1
-280 10 -405 36 -71 16 -258 70 -270 78 -5 4 -32 16 -60 26 -257 93 -604 359
-819 626 -76 96 -189 258 -235 339 -54 97 -157 312 -190 400 -18 47 -37 94
-41 105 -37 86 -132 432 -145 530 -3 22 -8 49 -10 61 -3 12 -7 39 -10 60 -3
21 -7 48 -10 59 -2 11 -7 49 -10 85 -4 36 -9 76 -11 90 -2 14 -7 78 -10 142
l-6 118 874 0 875 0 0 165 c0 145 -2 165 -16 166 -66 2 -212 31 -328 65 -225
64 -425 217 -539 411 -51 86 -72 137 -210 498 -63 165 -119 309 -124 320 -5
11 -27 67 -49 125 -22 58 -58 152 -81 210 -22 58 -40 111 -40 117 0 22 97 201
163 302 290 441 709 735 1184 830 157 32 160 32 338 36 154 4 303 -8 370 -28
11 -4 31 -8 45 -11 84 -14 251 -84 368 -154 205 -123 416 -334 556 -557 28
-45 57 -90 63 -100 29 -46 143 -277 178 -360 100 -241 212 -589 267 -830 l14
-60 193 -3 193 -2 -7 377 c-4 208 -8 475 -10 593 -2 118 -7 375 -10 570 -12
627 -14 734 -14 783 l-1 47 -188 0 -187 0 -70 -116 c-39 -63 -80 -132 -91
-152 -12 -20 -26 -38 -32 -40 -5 -1 -34 11 -63 29 -96 57 -310 160 -433 209
-284 112 -508 165 -831 197 -103 10 -527 10 -625 0 -458 -48 -860 -176 -1236
-393 -88 -51 -271 -169 -284 -184 -3 -3 -23 -19 -45 -36 -22 -16 -49 -37 -60
-47 -11 -10 -32 -28 -47 -39 l-28 -19 -11 28 c-24 61 -101 261 -203 528 -120
310 -213 549 -226 580 -5 11 -72 187 -150 390 -78 204 -145 379 -150 390 -13
29 -107 273 -322 835 -58 151 -108 282 -112 290 -3 8 -70 182 -149 385 l-143
370 -191 3 c-105 1 -194 -1 -196 -5z m-39 -1613 c58 -150 95 -244 257 -660 93
-240 102 -263 136 -345 4 -11 49 -126 99 -255 50 -129 117 -302 150 -385 117
-299 180 -463 233 -600 l54 -140 -990 -3 c-545 -1 -992 -1 -994 1 -3 4 14 51
37 102 5 11 93 241 196 510 102 270 192 504 199 520 8 17 73 185 145 375 72
190 155 406 184 480 29 74 90 233 136 353 46 120 86 214 90 210 4 -4 34 -78
68 -163z"/>
</g>
</svg>
